# xmcd
#
# Track frame offsets:
#	150
#	21350
#	43032
#	58224
#	75375
#	93580
#	113332
#	131116
#	150592
#	165928
#	185343
#	206985
#	224722
#	245219
#	262102
#	280122
#	299867
#
# Disc length: 4273 seconds
#
# Revision: 0
# Processed by: cddbd v1.4b42PL1 Copyright (c) Steve Scherf et al.
# Submitted via: EasyCDDAExtractor 4.5.0.2
#
DISCID=0910af11
DTITLE=Marco Antonio Solis - Mas de mi alma
DYEAR=2001
DGENRE=popular mexicana
TTITLE0=Cuando te acuerdes de mi
TTITLE1=O me voy o te vas
TTITLE2=En desventaja
TTITLE3=Resignacion
TTITLE4=Boca de angel
TTITLE5=Tu hombre perfecto
TTITLE6=Fue mejor asi
TTITLE7=Se que me vas a dejar
TTITLE8=Mujeres solitas
TTITLE9=Donde estara la primavera
TTITLE10=Si no te hubieras ido
TTITLE11=Amor en silencio
TTITLE12=Se va muriendo el alma
TTITLE13=Mi eterno amor secreto
TTITLE14=Sigue sin mi
TTITLE15=Si te pudiera mentir
TTITLE16=La ultima parte
EXTD=
EXTT0=
EXTT1=
EXTT2=
EXTT3=
EXTT4=
EXTT5=
EXTT6=
EXTT7=
EXTT8=
EXTT9=
EXTT10=
EXTT11=
EXTT12=
EXTT13=
EXTT14=
EXTT15=
EXTT16=
PLAYORDER=
